<?xml version="1.0" encoding="iso-8859-1"?>
<!-- Generator: Adobe Illustrator 19.0.0, SVG Export Plug-In . SVG Version: 6.00 Build 0)  -->
<svg version="1.1" id="Layer_1" xmlns="http://www.w3.org/2000/svg" xmlns:xlink="http://www.w3.org/1999/xlink" x="0px" y="0px"
	 viewBox="0 0 473.931 473.931" style="enable-background:new 0 0 473.931 473.931;" xml:space="preserve">
<circle style="fill:#49A0AE;" cx="236.966" cy="236.966" r="236.966"/>
<path style="fill:#996B33;" d="M239.132,427.882c0,4.954-0.819,8.973-1.833,8.973l0,0c-1.022,0-1.841-4.019-1.841-8.973
	l-11.861-383.04c0-4.95,6.133-8.973,13.702-8.973l0,0c7.562,0,13.695,4.022,13.695,8.973L239.132,427.882z"/>
<path style="fill:#A77640;" d="M237.299,436.858L237.299,436.858c-1.022,0-1.841-4.019-1.841-8.973l-11.861-383.04
	c0-4.95,6.133-8.973,13.702-8.973l0,0L237.299,436.858L237.299,436.858z"/>
<path style="fill:#74BB4D;" d="M264.617,267.064c-42.824-18.829-41.159-32.273-39.756-45.369
	c1.489-13.927,17.122-20.815,23.693-23.693c9.983-4.363,28.737-10.784,35.24-13.096c33.275-11.854,44.587-54.244,1.792-76.493
	c-6.204-3.225-15.873-7.263-27.442-11.839c-5.56-2.196-16.976,9.762-9.399,12.595c0.745,0.273,2.866,4.251,3.551,4.658
	c44.594,26.484,20.587,56.111,1.456,60.373c-0.116-0.052-66.921,12.576-67.557,44.392c-0.621,30.858,8.924,42.753,52.078,60.789
	c6.701,2.799,12.767,12.535,11.379,27.902c-1.527,16.89-5.16,25.212-12.352,28.583c-19.959,9.354-38.009,22.211-38.009,49.84
	c0,38.267,74.446,40.145,74.446,40.145s7.177,1.602,7.951-3.042c0.468-2.806-1.949-3.427-1.949-3.427s-49.893,3.349-49.893-34.918
	c0-27.633,12.834-31.88,37.418-47.401C292.213,321.316,288.19,277.429,264.617,267.064z"/>
<path style="fill:#996B33;" d="M245.774,214.515c-2.339,0-5.276,0-8.479,0l0,0v-52.957l0,0c3.895,0,7.416,0,9.908,0L245.774,214.515
	z"/>
<path style="fill:#A77640;" d="M237.299,214.515L237.299,214.515c-3.244,0-6.219,0-8.565,0l-1.616-52.957h10.181l0,0V214.515z"/>
<path style="fill:#996B33;" d="M241.018,363.763c-1.182,0-2.432,0-3.719,0l0,0V330.45v0.153c1.579,0,3.106-0.153,4.524-0.153
	L241.018,363.763z"/>
<g>
	<path style="fill:#A77640;" d="M237.299,363.763L237.299,363.763c-1.358,0-2.462,2.78-3.697,2.78l-1.014-30.675h4.715l0,0v27.895
		H237.299z"/>
	<circle style="fill:#A77640;" cx="237.34" cy="53.937" r="19.955"/>
</g>
<path style="fill:#996B33;" d="M257.287,53.937c0,11.019-8.939,19.959-19.959,19.959v-39.91
	C248.348,33.986,257.287,42.918,257.287,53.937z"/>
<path style="fill:#CC4028;" d="M229.684,115.852c-7.843,2.17-15.596,3.689-21.945,3.689c-7.446,0-12.554-8.408-20.527-19.034
	c0,0,4.288,0.202,9.538,3.742l2.859-7.764c0,0,2.324,6.065,1.227,10.627c0,0,2.069,7.109,9.601,7.368
	c2.814,0.09,7.124-0.737,12.913-2.223C233.441,109.671,249.239,110.434,229.684,115.852z"/>
<path style="fill:#74BB4D;" d="M249.804,94.962c-13.916-0.37-31.958,7.914-32.187,15.442c-0.206,7.517,17.987,14.125,31.891,14.458
	c13.908,0.37,18.308-5.624,18.525-13.149c0.03-1.272-0.543-4.793-0.73-5.336C265.601,101.432,260.232,95.228,249.804,94.962z"/>
<circle style="fill:#555C49;" cx="244" cy="104.807" r="4.209"/>
<g>
</g>
<g>
</g>
<g>
</g>
<g>
</g>
<g>
</g>
<g>
</g>
<g>
</g>
<g>
</g>
<g>
</g>
<g>
</g>
<g>
</g>
<g>
</g>
<g>
</g>
<g>
</g>
<g>
</g>
</svg>
