<?xml version="1.0" encoding="iso-8859-1"?>
<!-- Generator: Adobe Illustrator 19.0.0, SVG Export Plug-In . SVG Version: 6.00 Build 0)  -->
<svg version="1.1" id="Layer_1" xmlns="http://www.w3.org/2000/svg" xmlns:xlink="http://www.w3.org/1999/xlink" x="0px" y="0px"
	 viewBox="0 0 512 512" style="enable-background:new 0 0 512 512;" xml:space="preserve">
<g>
	<circle style="fill:#A0EBFF;" cx="256" cy="256" r="256"/>
	<rect x="164.096" y="172.006" style="fill:#FFFFFF;" width="143.667" height="204.221"/>
	<rect x="143.667" y="77.788" style="fill:#FDF35A;" width="184.525" height="94.218"/>
	<rect x="235.93" y="77.788" style="fill:#F7BF00;" width="71.834" height="94.218"/>
	<polygon style="fill:#B6F0FF;" points="290.156,172.006 164.106,172.006 164.106,188.539 235.935,200.202 235.935,376.228 
		290.156,376.228 	"/>
	<rect x="184.73" y="224.492" style="fill:#FC611F;" width="105.446" height="107.315"/>
	<rect x="235.93" y="224.492" style="fill:#E34E10;" width="54.226" height="107.315"/>
	<path style="fill:#FFFFFF;" d="M334.034,362.266h-52.541c-11.233,0-20.342,9.108-20.342,20.337
		c0,11.233,9.103,20.342,20.342,20.342h52.541c11.233,0,20.342-9.108,20.342-20.342
		C354.376,371.374,345.267,362.266,334.034,362.266z"/>
	<path style="fill:#FC611F;" d="M334.034,362.266h-26.271v40.678h26.271c11.233,0,20.342-9.108,20.342-20.342
		C354.376,371.374,345.267,362.266,334.034,362.266z"/>
	<path style="fill:#FFFFFF;" d="M177.254,434.212h52.541c11.233,0,20.342-9.108,20.342-20.337c0-11.233-9.108-20.342-20.342-20.342
		h-52.541c-11.233,0-20.342,9.108-20.342,20.342C156.913,425.103,166.021,434.212,177.254,434.212z"/>
	<path style="fill:#FC611F;" d="M177.254,434.212h26.271v-40.678h-26.271c-11.233,0-20.342,9.108-20.342,20.342
		C156.913,425.103,166.021,434.212,177.254,434.212z"/>
	<path style="fill:#FFFFFF;" d="M401.874,357.591l-40.3-33.715c-8.617-7.209-21.443-6.067-28.652,2.545
		c-7.209,8.612-6.067,21.443,2.545,28.652l40.3,33.715c8.617,7.209,21.443,6.067,28.652-2.545
		C411.628,377.631,410.491,364.8,401.874,357.591z"/>
	<path style="fill:#FC611F;" d="M401.874,357.591l-20.147-16.86l-26.102,31.196l20.147,16.86c8.617,7.209,21.443,6.067,28.652-2.545
		C411.633,377.631,410.491,364.8,401.874,357.591z"/>
</g>
<g>
</g>
<g>
</g>
<g>
</g>
<g>
</g>
<g>
</g>
<g>
</g>
<g>
</g>
<g>
</g>
<g>
</g>
<g>
</g>
<g>
</g>
<g>
</g>
<g>
</g>
<g>
</g>
<g>
</g>
</svg>
