<?xml version="1.0" encoding="iso-8859-1"?>
<!-- Generator: Adobe Illustrator 19.0.0, SVG Export Plug-In . SVG Version: 6.00 Build 0)  -->
<svg version="1.1" id="Layer_1" xmlns="http://www.w3.org/2000/svg" xmlns:xlink="http://www.w3.org/1999/xlink" x="0px" y="0px"
	 viewBox="0 0 453.999 453.999" style="enable-background:new 0 0 453.999 453.999;" xml:space="preserve">
<g>
	<g>
		<path style="fill:#31C0D8;" d="M400.433,278.871c38.355,38.355,38.355,100.508,0,138.863s-100.508,38.355-138.863,0
			L400.433,278.871z"/>
		<path style="fill:#31C0D8;" d="M261.57,36.266l138.863,138.863c-38.355,38.355-100.508,38.355-138.863,0
			S223.215,74.621,261.57,36.266z"/>
		<path style="fill:#E7ECED;" d="M400.433,36.266c38.355,38.355,38.355,100.508,0,138.863L261.57,36.266
			C299.924-2.089,362.078-2.089,400.433,36.266z"/>
		<path style="fill:#E7ECED;" d="M261.57,278.871c38.355-38.355,100.508-38.355,138.863,0L261.57,417.734
			C223.215,379.379,223.215,317.226,261.57,278.871z"/>
		<path style="fill:#F4661E;" d="M186.594,30.605V227H24.857V30.605C24.857,17.897,35.254,7.5,47.962,7.5h115.526
			C176.196,7.5,186.594,17.897,186.594,30.605z"/>
		<path style="fill:#E7ECED;" d="M186.594,227v196.395c0,12.708-10.397,23.105-23.105,23.105H47.962
			c-12.708,0-23.105-10.397-23.105-23.105V227H186.594z"/>
	</g>
	<g>
		<path d="M163.488,0H47.963C31.087,0,17.357,13.729,17.357,30.605v392.789c0,16.876,13.729,30.605,30.605,30.605h115.525
			c16.876,0,30.605-13.729,30.605-30.605V30.605C194.093,13.729,180.364,0,163.488,0z M47.963,15h115.525
			c8.604,0,15.605,7,15.605,15.605V219.5H32.357V30.605C32.357,22,39.358,15,47.963,15z M163.488,439H47.963
			c-8.604,0-15.605-7-15.605-15.605V234.5h146.736v188.895C179.093,432,172.092,439,163.488,439z"/>
		<path d="M331.002,211.338c27.065,0,54.131-10.302,74.735-30.906c41.208-41.209,41.208-108.261,0-149.469
			c-41.209-41.209-108.262-41.209-149.471,0c-41.208,41.208-41.208,108.26,0,149.469
			C276.871,201.036,303.936,211.338,331.002,211.338z M395.13,41.569c33.573,33.573,35.246,87.121,5.067,122.716L272.414,36.503
			c16.85-14.287,37.709-21.453,58.588-21.453C354.223,15.049,377.452,23.892,395.13,41.569z M261.807,47.11L389.59,174.892
			c-35.593,30.178-89.144,28.506-122.716-5.066C233.301,136.252,231.628,82.704,261.807,47.11z"/>
		<path d="M256.266,273.568c-41.208,41.209-41.208,108.261,0,149.469c20.604,20.604,47.67,30.906,74.735,30.906
			s54.131-10.302,74.735-30.906c41.208-41.208,41.208-108.26,0-149.469C364.528,232.36,297.475,232.36,256.266,273.568z
			 M266.874,284.174c17.68-17.68,40.904-26.52,64.128-26.52c20.876,0,41.739,7.167,58.588,21.453L261.807,406.89
			C231.628,371.296,233.301,317.748,266.874,284.174z M395.13,412.431c-33.572,33.573-87.123,35.245-122.716,5.066l127.783-127.782
			C430.375,325.309,428.702,378.858,395.13,412.431z"/>
		<polygon points="72.791,55.434 94.172,55.434 94.172,40.434 57.791,40.434 57.791,88.368 72.791,88.368 		"/>
	</g>
</g>
<g>
</g>
<g>
</g>
<g>
</g>
<g>
</g>
<g>
</g>
<g>
</g>
<g>
</g>
<g>
</g>
<g>
</g>
<g>
</g>
<g>
</g>
<g>
</g>
<g>
</g>
<g>
</g>
<g>
</g>
</svg>
