<?xml version="1.0" encoding="iso-8859-1"?>
<!-- Generator: Adobe Illustrator 19.0.0, SVG Export Plug-In . SVG Version: 6.00 Build 0)  -->
<svg version="1.1" id="Layer_1" xmlns="http://www.w3.org/2000/svg" xmlns:xlink="http://www.w3.org/1999/xlink" x="0px" y="0px"
	 viewBox="0 0 512 512" style="enable-background:new 0 0 512 512;" xml:space="preserve">
<path style="fill:#4C213A;" d="M362.669,512H149.331c-43.325,0-78.572-35.247-78.572-78.572V113.123
	c0-8.753,7.098-15.851,15.851-15.851h338.78c8.753,0,15.851,7.098,15.851,15.851v104.843c0,8.753-7.098,15.851-15.851,15.851
	c-8.753,0-15.851-7.098-15.851-15.851v-88.992H102.461v304.452c0,25.845,21.028,46.871,46.871,46.871h213.338
	c25.845,0,46.871-21.028,46.871-46.871V289.608c0-8.753,7.098-15.851,15.851-15.851c8.753,0,15.851,7.098,15.851,15.851v143.818
	C441.241,476.751,405.994,512,362.669,512z"/>
<path style="fill:#E7B3A8;" d="M61.128,118.002h72.79H287.08h163.792V78.574c0-34.64-28.081-62.723-62.723-62.723H123.851
	c-34.64,0-62.723,28.081-62.723,62.723C61.128,78.574,61.128,118.002,61.128,118.002z"/>
<path style="fill:#4C213A;" d="M450.87,133.853H61.128c-8.753,0-15.851-7.098-15.851-15.851v-39.43
	C45.278,35.247,80.526,0,123.851,0h264.298c43.325,0,78.572,35.247,78.572,78.572v39.43
	C466.721,126.757,459.625,133.853,450.87,133.853z M76.979,102.151h358.04v-23.58c0-25.845-21.028-46.871-46.871-46.871H123.851
	c-25.845,0-46.871,21.028-46.871,46.871v23.58H76.979z"/>
<circle style="fill:#E7B3A8;" cx="256.005" cy="310.626" r="90.603"/>
<g>
	<path style="fill:#4C213A;" d="M256,417.094c-58.703,0-106.461-47.758-106.461-106.461c0-58.702,47.758-106.46,106.461-106.46
		s106.461,47.758,106.461,106.46C362.461,369.336,314.703,417.094,256,417.094z M256,235.874c-41.223,0-74.76,33.537-74.76,74.758
		c0,41.223,33.537,74.76,74.76,74.76s74.76-33.537,74.76-74.76C330.76,269.411,297.223,235.874,256,235.874z"/>
	<path style="fill:#4C213A;" d="M256,359.071c-8.753,0-15.851-7.098-15.851-15.851v-65.177c0-8.753,7.098-15.851,15.851-15.851
		c8.753,0,15.851,7.098,15.851,15.851v65.177C271.851,351.974,264.753,359.071,256,359.071z"/>
	<path style="fill:#4C213A;" d="M288.586,326.483h-65.173c-8.753,0-15.851-7.098-15.851-15.851c0-8.753,7.098-15.851,15.851-15.851
		h65.173c8.753,0,15.851,7.098,15.851,15.851C304.437,319.385,297.34,326.483,288.586,326.483z"/>
	<path style="fill:#4C213A;" d="M468.206,133.853H43.794c-8.753,0-15.851-7.098-15.851-15.851s7.098-15.851,15.851-15.851h424.412
		c8.753,0,15.851,7.098,15.851,15.851S476.959,133.853,468.206,133.853z"/>
</g>
<g>
</g>
<g>
</g>
<g>
</g>
<g>
</g>
<g>
</g>
<g>
</g>
<g>
</g>
<g>
</g>
<g>
</g>
<g>
</g>
<g>
</g>
<g>
</g>
<g>
</g>
<g>
</g>
<g>
</g>
</svg>
