<?xml version="1.0" encoding="iso-8859-1"?>
<!-- Generator: Adobe Illustrator 19.0.0, SVG Export Plug-In . SVG Version: 6.00 Build 0)  -->
<svg version="1.1" id="Layer_1" xmlns="http://www.w3.org/2000/svg" xmlns:xlink="http://www.w3.org/1999/xlink" x="0px" y="0px"
	 viewBox="0 0 512 512" style="enable-background:new 0 0 512 512;" xml:space="preserve">
<rect x="229.608" y="7.918" style="fill:#546A79;" width="52.784" height="31.67"/>
<g>
	<path style="fill:#AFB6BB;" d="M324.619,440.742v52.784c0,5.827-4.729,10.557-10.557,10.557H197.938
		c-5.827,0-10.557-4.729-10.557-10.557v-52.784H324.619z"/>
	<rect x="229.608" y="39.588" style="fill:#AFB6BB;" width="52.784" height="42.227"/>
</g>
<polygon style="fill:#E7ECED;" points="324.619,440.742 187.381,440.742 187.381,81.814 229.608,81.814 282.392,81.814 
	324.619,81.814 "/>
<path d="M290.309,73.897V0h-68.619v73.897h-42.227v419.629c0,10.186,8.288,18.474,18.474,18.474h116.124
	c10.186,0,18.474-8.288,18.474-18.474V73.897H290.309z M237.526,47.505h36.948v26.392h-36.948V47.505z M274.474,15.835V31.67
	h-36.948V15.835H274.474z M316.701,89.732v21.113H287.67v15.835h29.031v36.948H287.67v15.835h29.031v36.948H287.67v15.835h29.031
	v47.505H287.67v15.835h29.031v47.505H287.67v15.835h29.031v36.948H287.67v15.835h29.031v21.113H195.299v-21.113h29.031v-15.835
	h-29.031v-36.948h29.031v-15.835h-29.031v-47.505h29.031v-15.835h-29.031v-47.505h29.031v-15.835h-29.031v-36.948h29.031v-15.835
	h-29.031V126.68h29.031v-15.835h-29.031V89.732H316.701z M314.062,496.165H197.938c-1.455,0-2.639-1.184-2.639-2.639V448.66h121.402
	v44.866C316.701,494.98,315.517,496.165,314.062,496.165z"/>
<rect x="248.082" y="108.206" width="15.835" height="306.144"/>
<rect x="213.773" y="464.495" width="84.454" height="15.835"/>
<g>
</g>
<g>
</g>
<g>
</g>
<g>
</g>
<g>
</g>
<g>
</g>
<g>
</g>
<g>
</g>
<g>
</g>
<g>
</g>
<g>
</g>
<g>
</g>
<g>
</g>
<g>
</g>
<g>
</g>
</svg>
