<?xml version="1.0" encoding="iso-8859-1"?>
<!-- Generator: Adobe Illustrator 19.0.0, SVG Export Plug-In . SVG Version: 6.00 Build 0)  -->
<svg version="1.1" id="Layer_1" xmlns="http://www.w3.org/2000/svg" xmlns:xlink="http://www.w3.org/1999/xlink" x="0px" y="0px"
	 viewBox="0 0 512 512" style="enable-background:new 0 0 512 512;" xml:space="preserve">
<g>
	<path style="fill:#B3404A;" d="M427.488,512H84.512c-25.876,0-46.927-21.051-46.927-46.927V46.927C37.585,21.051,58.636,0,84.512,0
		h342.976c25.876,0,46.927,21.051,46.927,46.927v103.5c0,8.33-6.752,15.082-15.082,15.082c-8.33,0-15.082-6.752-15.082-15.082
		v-103.5c0-9.244-7.52-16.763-16.763-16.763H84.512c-9.244,0-16.763,7.52-16.763,16.763v418.146c0,9.244,7.52,16.763,16.763,16.763
		h342.976c9.244,0,16.763-7.52,16.763-16.763V256c0-8.33,6.752-15.082,15.082-15.082c8.33,0,15.082,6.752,15.082,15.082v209.073
		C474.415,490.949,453.364,512,427.488,512z"/>
	<path style="fill:#B3404A;" d="M459.333,165.51H346.49c-8.33,0-15.082-6.752-15.082-15.082s6.752-15.082,15.082-15.082h112.843
		c8.33,0,15.082,6.752,15.082,15.082S467.663,165.51,459.333,165.51z"/>
</g>
<path style="fill:#F4B2B0;" d="M294.55,249.473v-116.9c0-21.291-17.259-38.55-38.55-38.55l0,0c-21.291,0-38.55,17.26-38.55,38.55
	v116.9c-27.817,14.418-46.553,43.926-45.31,77.698c1.594,43.307,36.597,78.665,79.888,80.66
	c48.153,2.22,87.892-36.163,87.892-83.827C339.919,291.561,321.495,263.438,294.55,249.473z"/>
<g>
	<path style="fill:#B3404A;" d="M256.008,423.006c-0.003,0-0.005,0-0.009,0c-1.547,0-3.117-0.036-4.665-0.109
		c-50.981-2.351-92.386-44.155-94.264-95.172c-1.286-34.961,16.255-68.118,45.299-86.913V132.571
		c0-29.572,24.06-53.632,53.632-53.632c29.572,0,53.632,24.06,53.632,53.632v108.225c28.201,18.145,45.369,49.239,45.369,83.207
		c0,26.446-10.298,51.308-28.996,70.005C307.308,412.708,282.449,423.006,256.008,423.006z M256,109.104
		c-12.942,0-23.469,10.527-23.469,23.469v116.901c0,5.633-3.14,10.799-8.141,13.39c-23.923,12.399-38.169,36.828-37.178,63.753
		c1.305,35.459,30.08,64.515,65.51,66.15c1.096,0.05,2.193,0.075,3.279,0.075c0,0,0.005,0,0.006,0
		c18.386,0,35.668-7.159,48.67-20.16c13-13.002,20.161-30.289,20.161-48.678c0-25.812-14.264-49.24-37.226-61.143
		c-5.001-2.593-8.141-7.757-8.141-13.39v-116.9C279.469,119.631,268.942,109.104,256,109.104z"/>
	<path style="fill:#B3404A;" d="M459.333,376.654H346.49c-8.33,0-15.082-6.752-15.082-15.082s6.752-15.082,15.082-15.082h112.843
		c8.33,0,15.082,6.752,15.082,15.082S467.663,376.654,459.333,376.654z"/>
	<path style="fill:#B3404A;" d="M459.333,271.082h-72.876c-8.33,0-15.082-6.752-15.082-15.082s6.752-15.082,15.082-15.082h72.876
		c8.33,0,15.082,6.752,15.082,15.082S467.663,271.082,459.333,271.082z"/>
</g>
<g>
</g>
<g>
</g>
<g>
</g>
<g>
</g>
<g>
</g>
<g>
</g>
<g>
</g>
<g>
</g>
<g>
</g>
<g>
</g>
<g>
</g>
<g>
</g>
<g>
</g>
<g>
</g>
<g>
</g>
</svg>
