<svg id="svgcontent" width="955" height="625.909" x="0" y="0" overflow="visible" xmlns="http://www.w3.org/2000/svg" xmlns:se="http://imprintnext.com" xmlns:xlink="http://www.w3.org/1999/xlink" viewBox="0 0 955 625.909"><!-- Made with luv in USA by ImprintNext - https://imprintnext.com--><defs><clipPath id="bound_0" xe_id="bound_0"><rect id="xe_munhww" x="236.4092" y="177.340925" pointer-events="all" width="482.1816" height="271.22715"></rect></clipPath></defs><g id="bounds"><path d="M236.4092 177.340925 L718.5908 177.340925 L718.5908 448.568075 L236.4092 448.568075  Z" x="236.4092" y="177.340925" width="482.1816" height="271.22715" aWidth="1920" aHeight="1080" fill="none" stroke="#006400" isBleed="0" safeVal="0" cropVal="0" stroke-miterlimit="null" stroke-width="1" pointer-events="all" id="bound_0" xe_id="bound_0"></path></g><g class="layer" id="Layer_0" xe_id="Layer_0" style="pointer-events:all" clip-path="url(#bound_0)"><title>Layer_0</title><g id="background" type="bg_area_0" pointer-events="none" style="color-interpolation-filters:sRGB;pointer-events: none;" x="236.4092" y="177.340925" width="482.1816" height="271.22715" xe-props="&amp;#35;&amp;#103;&amp;#76;&amp;#73;&amp;#65;&amp;#101;&amp;#122;&amp;#127;&amp;#26;&amp;#82;&amp;#80;&amp;#99;&amp;#51;&amp;#34;&amp;#74;&amp;#95;&amp;#68;&amp;#110;&amp;#60;&amp;#103;&amp;#20;&amp;#18;&amp;#83;&amp;#97;&amp;#59;&amp;#46;&amp;#95;&amp;#66;&amp;#94;&amp;#117;&amp;#54;&amp;#33;&amp;#108;&amp;#73;&amp;#65;&amp;#101;&amp;#122;&amp;#127;&amp;#9;&amp;#28;&amp;#19;&amp;#102;&amp;#49;&amp;#49;&amp;#119;&amp;#64;&amp;#69;&amp;#68;&amp;#57;&amp;#49;&amp;#89;&amp;#18;&amp;#11;&amp;#123;&amp;#122;&amp;#54;&amp;#93;&amp;#92;&amp;#84;&amp;#99;&amp;#44;&amp;#32;&amp;#92;&amp;#127;&amp;#65;&amp;#116;&amp;#122;&amp;#127;&amp;#26;&amp;#100;&amp;#88;&amp;#108;&amp;#61;&amp;#103;&amp;#20;&amp;#18;&amp;#69;&amp;#105;&amp;#52;&amp;#32;&amp;#124;&amp;#81;&amp;#69;&amp;#97;&amp;#122;&amp;#127;&amp;#67;&amp;#18;&amp;#88;&amp;#115;&amp;#31;&amp;#55;&amp;#81;&amp;#84;&amp;#19;&amp;#58;&amp;#104;&amp;#105;&amp;#26;&amp;#74;&amp;#94;&amp;#111;&amp;#53;&amp;#103;&amp;#2;&amp;#9;&amp;#29;&amp;#34;&amp;#43;&amp;#53;&amp;#89;&amp;#83;&amp;#88;&amp;#110;&amp;#63;&amp;#103;&amp;#2;&amp;#0;&amp;#29;&amp;#34;&amp;#55;&amp;#35;&amp;#94;&amp;#67;&amp;#84;&amp;#116;&amp;#0;&amp;#103;&amp;#2;&amp;#0;&amp;#29;&amp;#34;&amp;#55;&amp;#35;&amp;#94;&amp;#67;&amp;#84;&amp;#116;&amp;#1;&amp;#103;&amp;#2;&amp;#0;&amp;#29;&amp;#34;&amp;#42;&amp;#42;&amp;#76;&amp;#81;&amp;#69;&amp;#101;&amp;#122;&amp;#127;&amp;#1;&amp;#0;&amp;#76;&amp;#125;&amp;#116;&amp;#103;&amp;#75;&amp;#85;&amp;#93;&amp;#66;&amp;#57;&amp;#38;&amp;#83;&amp;#87;&amp;#67;&amp;#111;&amp;#45;&amp;#43;&amp;#92;&amp;#18;&amp;#11;&amp;#50;&amp;#97;&amp;#105;&amp;#26;&amp;#64;&amp;#67;&amp;#105;&amp;#59;&amp;#32;&amp;#26;&amp;#10;&amp;#1;&amp;#44;&amp;#122;&amp;#36;&amp;#72;&amp;#64;&amp;#93;&amp;#121;&amp;#61;&amp;#33;&amp;#122;&amp;#81;&amp;#82;&amp;#107;&amp;#63;&amp;#55;&amp;#87;&amp;#69;&amp;#95;&amp;#100;&amp;#122;&amp;#127;&amp;#67;&amp;#18;&amp;#73;&amp;#101;&amp;#7;&amp;#44;&amp;#92;&amp;#18;&amp;#11;&amp;#50;&amp;#97;&amp;#105;&amp;#26;&amp;#94;&amp;#80;&amp;#109;&amp;#61;&amp;#103;&amp;#2;&amp;#18;&amp;#97;&amp;#114;&amp;#61;&amp;#40;&amp;#81;&amp;#69;&amp;#92;&amp;#32;&amp;#12;&amp;#32;&amp;#64;&amp;#68;&amp;#68;&amp;#114;&amp;#61;&amp;#54;&amp;#26;&amp;#28;&amp;#19;&amp;#118;&amp;#57;&amp;#41;&amp;#77;&amp;#85;&amp;#19;&amp;#58;&amp;#122;&amp;#45;&amp;#76;&amp;#68;&amp;#65;&amp;#115;&amp;#98;&amp;#106;&amp;#23;&amp;#89;&amp;#92;&amp;#112;&amp;#42;&amp;#44;&amp;#86;&amp;#68;&amp;#95;&amp;#101;&amp;#32;&amp;#49;&amp;#22;&amp;#89;&amp;#94;&amp;#47;&amp;#32;&amp;#32;&amp;#76;&amp;#95;&amp;#94;&amp;#108;&amp;#119;&amp;#36;&amp;#75;&amp;#67;&amp;#84;&amp;#116;&amp;#43;&amp;#106;&amp;#90;&amp;#81;&amp;#82;&amp;#107;&amp;#63;&amp;#55;&amp;#87;&amp;#69;&amp;#95;&amp;#100;&amp;#43;&amp;#106;&amp;#10;&amp;#0;&amp;#3;&amp;#48;&amp;#104;&amp;#118;&amp;#8;&amp;#7;&amp;#1;&amp;#57;&amp;#105;&amp;#117;&amp;#8;&amp;#0;&amp;#5;&amp;#50;&amp;#108;&amp;#115;&amp;#22;&amp;#90;&amp;#65;&amp;#103;&amp;#122;&amp;#105;&amp;#26;&amp;#64;&amp;#67;&amp;#105;&amp;#59;&amp;#32;&amp;#26;&amp;#10;&amp;#1;&amp;#44;&amp;#122;&amp;#49;&amp;#65;&amp;#64;&amp;#84;&amp;#34;&amp;#98;&amp;#116;&amp;#20;&amp;#18;&amp;#69;&amp;#104;&amp;#45;&amp;#40;&amp;#90;&amp;#94;&amp;#80;&amp;#105;&amp;#52;&amp;#103;&amp;#2;&amp;#18;&amp;#89;&amp;#116;&amp;#44;&amp;#53;&amp;#75;&amp;#10;&amp;#30;&amp;#47;&amp;#49;&amp;#40;&amp;#72;&amp;#66;&amp;#88;&amp;#110;&amp;#44;&amp;#43;&amp;#93;&amp;#72;&amp;#69;&amp;#46;&amp;#49;&amp;#42;&amp;#23;&amp;#72;&amp;#84;&amp;#116;&amp;#55;&amp;#42;&amp;#84;&amp;#31;&amp;#80;&amp;#115;&amp;#43;&amp;#32;&amp;#76;&amp;#67;&amp;#30;&amp;#98;&amp;#57;&amp;#38;&amp;#83;&amp;#87;&amp;#67;&amp;#111;&amp;#45;&amp;#43;&amp;#92;&amp;#67;&amp;#30;&amp;#116;&amp;#48;&amp;#48;&amp;#85;&amp;#82;&amp;#110;&amp;#50;&amp;#104;&amp;#119;&amp;#8;&amp;#0;&amp;#2;&amp;#48;&amp;#111;&amp;#117;&amp;#1;&amp;#1;&amp;#1;&amp;#48;&amp;#104;&amp;#113;&amp;#10;&amp;#4;&amp;#7;&amp;#46;&amp;#50;&amp;#53;&amp;#95;&amp;#18;&amp;#29;&amp;#34;&amp;#59;&amp;#36;&amp;#76;&amp;#85;&amp;#86;&amp;#111;&amp;#42;&amp;#60;&amp;#103;&amp;#94;&amp;#80;&amp;#109;&amp;#61;&amp;#54;&amp;#26;&amp;#10;&amp;#19;&amp;#80;&amp;#42;&amp;#32;&amp;#85;&amp;#89;&amp;#68;&amp;#109;&amp;#120;&amp;#17;&amp;#93;&amp;#72;&amp;#69;&amp;#117;&amp;#42;&amp;#32;&amp;#26;&amp;#77;&amp;#29;&amp;#34;&amp;#52;&amp;#42;&amp;#91;&amp;#91;&amp;#19;&amp;#58;&amp;#35;&amp;#103;&amp;#92;&amp;#85;&amp;#93;&amp;#101;&amp;#44;&amp;#32;&amp;#26;&amp;#10;&amp;#87;&amp;#97;&amp;#52;&amp;#54;&amp;#93;&amp;#28;&amp;#19;&amp;#101;&amp;#60;&amp;#44;&amp;#76;&amp;#18;&amp;#11;&amp;#102;&amp;#57;&amp;#41;&amp;#75;&amp;#85;&amp;#76;&amp;#44;&amp;#122;&amp;#42;&amp;#90;&amp;#90;&amp;#84;&amp;#99;&amp;#44;&amp;#17;&amp;#81;&amp;#68;&amp;#93;&amp;#101;&amp;#122;&amp;#127;&amp;#26;&amp;#18;&amp;#76;"><pattern id="xe_auapvk" x="0" y="0" width="160.11111111111111" height="119.39714285714282" patternUnits="userSpaceOnUse" preserveAspectRatio="none"><image id="xe_agev0p" width="162.11111111111111" height="121.39714285714282" preserveAspectRatio="none" xlink:href="https://imprintnext.io/xetool/assets/backgrounds/202003070910004246.jpg"></image></pattern><rect id="xe_nqamon" x="236.4092" y="177.340925" width="482.1816" height="271.22715" fill="url(#xe_auapvk)"></rect></g><g id="xe_hrhrso" type="image" pointer-events="bounding-box" xe-props="&amp;#35;&amp;#103;&amp;#76;&amp;#73;&amp;#65;&amp;#101;&amp;#122;&amp;#127;&amp;#26;&amp;#89;&amp;#92;&amp;#97;&amp;#63;&amp;#32;&amp;#26;&amp;#28;&amp;#19;&amp;#111;&amp;#58;&amp;#47;&amp;#93;&amp;#83;&amp;#69;&amp;#84;&amp;#49;&amp;#49;&amp;#84;&amp;#85;&amp;#19;&amp;#58;&amp;#122;&amp;#103;&amp;#20;&amp;#18;&amp;#88;&amp;#115;&amp;#12;&amp;#32;&amp;#85;&amp;#64;&amp;#93;&amp;#97;&amp;#44;&amp;#32;&amp;#113;&amp;#93;&amp;#86;&amp;#34;&amp;#98;&amp;#35;&amp;#89;&amp;#92;&amp;#66;&amp;#101;&amp;#116;&amp;#103;&amp;#91;&amp;#95;&amp;#95;&amp;#116;&amp;#61;&amp;#43;&amp;#76;&amp;#100;&amp;#72;&amp;#112;&amp;#61;&amp;#103;&amp;#2;&amp;#18;&amp;#88;&amp;#109;&amp;#57;&amp;#34;&amp;#93;&amp;#31;&amp;#66;&amp;#118;&amp;#63;&amp;#110;&amp;#64;&amp;#93;&amp;#93;&amp;#34;&amp;#116;&amp;#103;&amp;#87;&amp;#94;&amp;#84;&amp;#67;&amp;#55;&amp;#41;&amp;#87;&amp;#66;&amp;#119;&amp;#105;&amp;#52;&amp;#41;&amp;#26;&amp;#10;&amp;#19;&amp;#35;&amp;#30;&amp;#3;&amp;#8;&amp;#0;&amp;#1;&amp;#48;&amp;#122;&amp;#105;&amp;#26;&amp;#89;&amp;#92;&amp;#103;&amp;#12;&amp;#60;&amp;#72;&amp;#85;&amp;#19;&amp;#58;&amp;#122;&amp;#54;&amp;#78;&amp;#87;&amp;#19;&amp;#44;&amp;#122;&amp;#44;&amp;#85;&amp;#87;&amp;#98;&amp;#101;&amp;#52;&amp;#32;&amp;#91;&amp;#68;&amp;#88;&amp;#111;&amp;#54;&amp;#17;&amp;#65;&amp;#64;&amp;#84;&amp;#34;&amp;#98;&amp;#103;&amp;#77;&amp;#64;&amp;#93;&amp;#111;&amp;#57;&amp;#33;&amp;#26;&amp;#28;&amp;#19;&amp;#108;&amp;#55;&amp;#38;&amp;#83;&amp;#18;&amp;#11;&amp;#123;&amp;#122;&amp;#38;&amp;#87;&amp;#92;&amp;#94;&amp;#114;&amp;#29;&amp;#33;&amp;#81;&amp;#68;&amp;#19;&amp;#58;&amp;#62;&amp;#36;&amp;#84;&amp;#67;&amp;#84;&amp;#44;&amp;#122;&amp;#33;&amp;#93;&amp;#92;&amp;#84;&amp;#116;&amp;#61;&amp;#103;&amp;#2;&amp;#86;&amp;#80;&amp;#108;&amp;#43;&amp;#32;&amp;#20;&amp;#18;&amp;#92;&amp;#111;&amp;#46;&amp;#32;&amp;#26;&amp;#10;&amp;#87;&amp;#97;&amp;#52;&amp;#54;&amp;#93;&amp;#28;&amp;#19;&amp;#114;&amp;#55;&amp;#49;&amp;#89;&amp;#68;&amp;#84;&amp;#34;&amp;#98;&amp;#35;&amp;#89;&amp;#92;&amp;#66;&amp;#101;&amp;#116;&amp;#103;&amp;#74;&amp;#85;&amp;#66;&amp;#105;&amp;#34;&amp;#32;&amp;#26;&amp;#10;&amp;#87;&amp;#97;&amp;#52;&amp;#54;&amp;#93;&amp;#28;&amp;#19;&amp;#101;&amp;#60;&amp;#44;&amp;#76;&amp;#18;&amp;#11;&amp;#102;&amp;#57;&amp;#41;&amp;#75;&amp;#85;&amp;#76;&amp;#44;&amp;#122;&amp;#38;&amp;#87;&amp;#92;&amp;#94;&amp;#114;&amp;#43;&amp;#103;&amp;#2;&amp;#107;&amp;#19;&amp;#35;&amp;#96;&amp;#35;&amp;#13;&amp;#8;&amp;#8;&amp;#102;&amp;#122;&amp;#105;&amp;#26;&amp;#19;&amp;#82;&amp;#50;&amp;#97;&amp;#115;&amp;#94;&amp;#7;&amp;#19;&amp;#44;&amp;#122;&amp;#102;&amp;#1;&amp;#6;&amp;#4;&amp;#98;&amp;#60;&amp;#38;&amp;#26;&amp;#28;&amp;#19;&amp;#35;&amp;#62;&amp;#33;&amp;#90;&amp;#81;&amp;#83;&amp;#97;&amp;#122;&amp;#105;&amp;#26;&amp;#19;&amp;#87;&amp;#102;&amp;#111;&amp;#35;&amp;#94;&amp;#9;&amp;#19;&amp;#44;&amp;#122;&amp;#102;&amp;#13;&amp;#5;&amp;#4;&amp;#67;&amp;#108;&amp;#124;&amp;#26;&amp;#109;&amp;#29;&amp;#34;&amp;#49;&amp;#40;&amp;#89;&amp;#87;&amp;#84;&amp;#87;&amp;#57;&amp;#55;&amp;#86;&amp;#89;&amp;#95;&amp;#103;&amp;#122;&amp;#127;&amp;#94;&amp;#81;&amp;#93;&amp;#115;&amp;#61;&amp;#56;" transform="translate(41.1111 -1.11107)"><g id="xe_4h8rrm"><circle cx="295.67786982174147" cy="497.3011499019209" r="236.9659881591797" fill="#8f589f" id="xe_4c389z" transform="matrix(0.631223 0 0 0.569796 249.827 30.7053)" oldFill="#8f589f"></circle><path d="M437.83299052473166,422.84877653912326 C437.83299052473166,425.67154633898724 437.3160191278578,427.96155680036253 436.67595930315673,427.96155680036253 L436.67595930315673,427.96155680036253 C436.03084969680145,427.96155680036253 435.51387829992757,425.67154633898724 435.51387829992757,422.84877653912326 L428.0269457745052,204.5940845447942 C428.0269457745052,201.77359392926604 431.8982346353446,199.48130428355486 436.67595930315673,199.48130428355486 L436.67595930315673,199.48130428355486 C441.44926541202125,199.48130428355486 445.32055427286076,201.77302413318205 445.32055427286076,204.5940845447942 L437.83299052473166,422.84877653912326 z" fill="#c296f7" id="xe_98vru1" oldFill="#c296f7"></path><path d="M436.67595930315673,427.96326618861434 L436.67595930315673,427.96326618861434 C436.03084969680145,427.96326618861434 435.51387829992757,425.67325572723905 435.51387829992757,422.8504859273751 L428.0269457745052,204.59579393304605 C428.0269457745052,201.77530331751785 431.8982346353446,199.48301367180673 436.67595930315673,199.48301367180673 L436.67595930315673,199.48301367180673 L436.67595930315673,427.96326618861434 L436.67595930315673,427.96326618861434 z" fill="#965bdc" id="xe_wop6rb" oldFill="#965bdc"></path><path d="M453.9197012076745,331.21530991124104 C426.88822001142773,320.4866194466388 427.9392058182593,312.8262808940809 428.8248112759076,305.364231378736 C429.76470188634147,297.42868131763265 439.63260646183454,293.5039258914189 443.78037086825475,291.8640527618249 C450.08186715029603,289.3780324475725 461.91981779372986,285.71937179256093 466.02465905608716,284.40200324648 C487.02859462504614,277.64764046739487 494.168985884432,253.49398446896222 467.1558101466828,240.8165913972678 C463.2397044736604,238.9789990265449 457.1364121215559,236.67816243957458 449.8337966265211,234.07077555944187 C446.32419837668164,232.81950335909846 439.1181599557879,239.63312493091388 443.9009344052546,241.24735723673032 C444.37119532182476,241.40291156764732 445.7100186829597,243.6695603895809 446.14240623712146,243.90146739574658 C474.2911516244143,258.99194688294847 459.1373881021304,275.87329546198976 447.06146649823074,278.30176637176373 C446.98824466424134,278.2721369753986 404.81941173608743,285.4675219234573 404.4179540945592,303.5961541302544 C404.0259647936328,321.1789216886321 410.05098553009304,327.9566461071591 437.2907702195855,338.2334882771928 C441.5205935778904,339.828347516155 445.34959051737366,345.3758821894445 444.47345340032734,354.13193861142884 C443.50957632703523,363.7557944692614 441.2163442332101,368.49763747985253 436.6765905258637,370.4184200788314 C424.078016520729,375.74829264805385 412.6844466628865,383.074160899336 412.6844466628865,398.8170569026549 C412.6844466628865,420.6214436469819 459.67645229374216,421.69152069263066 459.67645229374216,421.69152069263066 S464.2067376604867,422.60433401911075 464.6953040355544,419.95820100526976 C464.9907162623392,418.3593531937198 463.4650509799899,418.00550982558985 463.4650509799899,418.00550982558985 S431.9714564693341,419.9137569107221 431.9714564693341,398.1093701663951 C431.9714564693341,382.3641949787402 440.0725686884783,379.9442710102255 455.5905477125892,371.1004659913137 C471.338923024684,362.1278870574302 468.7995140752048,337.12124632133185 453.9197012076745,331.21530991124104 z" fill="#fdbaba" id="xe_p9n42i" oldFill="#fdbaba"></path><path d="M442.0255717433349,301.2730954960102 C440.5491418321165,301.2730954960102 438.69524074222824,301.2730954960102 436.67343441232947,301.2730954960102 L436.67343441232947,301.2730954960102 L436.67343441232947,271.09840427852987 L436.67343441232947,271.09840427852987 C439.13204685533776,271.09840427852987 441.3545820060006,271.09840427852987 442.92758899136027,271.09840427852987 L442.0255717433349,301.2730954960102 z" fill="#c296f7" id="xe_z4bqqt" oldFill="#c296f7"></path><path d="M436.67595930315673,301.2730954960102 L436.67595930315673,301.2730954960102 C434.6282728422791,301.2730954960102 432.7503852895321,301.2730954960102 431.26953681936607,301.2730954960102 L430.24948092516803,271.09840427852987 L436.67595930315673,271.09840427852987 L436.67595930315673,271.09840427852987 L436.67595930315673,301.2730954960102 z" fill="#965bdc" id="xe_72ou6p" oldFill="#965bdc"></path><path d="M439.02347654976717,386.3140214326476 C438.2773713103228,386.3140214326476 437.4883429268156,386.3140214326476 436.67595930315673,386.3140214326476 L436.67595930315673,386.3140214326476 L436.67595930315673,367.33240448818486 L436.67595930315673,367.4195832890284 C437.67265995720305,367.4195832890284 438.6365370304954,367.33240448818486 439.5316108287457,367.33240448818486 L439.02347654976717,386.3140214326476 z" fill="#c296f7" id="xe_b4ozeo" oldFill="#c296f7"></path><g id="xe_yhith4" transform="matrix(0.631223 0 0 0.569796 249.827 30.7053)"><path d="M296.0108717345074,624.0981406941978 L296.0108717345074,624.0981406941978 C294.65287173450747,624.0981406941978 293.54887173450743,626.8781406941979 292.3138717345074,626.8781406941979 L291.2998717345074,596.2031406941978 L296.01487173450744,596.2031406941978 L296.01487173450744,596.2031406941978 L296.01487173450744,624.0981406941978 L296.0108717345074,624.0981406941978 z" fill="#965bdc" id="xe_nl7s59" oldFill="#965bdc"></path><circle cx="296.0518717345075" cy="314.2721406941979" r="19.954999923706055" fill="#965bdc" id="xe_z30tj3" oldFill="#965bdc"></circle></g><path d="M449.29283876678875,209.77637992827485 C449.29283876678875,216.05496297726586 443.6503389906528,221.148939967735 436.69426476165415,221.148939967735 L436.69426476165415,198.4083782574863 C443.6503389906528,198.4083782574863 449.29283876678875,203.49779687928384 449.29283876678875,209.77637992827485 z" fill="#c296f7" id="xe_qxyczh" oldFill="#c296f7"></path><path d="M431.86919839083146,245.0553044657354 C426.9185187013544,246.29176196789624 422.02464905549,247.1572822194088 418.0170160899809,247.1572822194088 C413.31693181510553,247.1572822194088 410.0926462287422,242.3664367455985 405.0599075873804,236.31178355759792 C405.0599075873804,236.31178355759792 407.76659055416314,236.42688236655482 411.080509764893,238.44396050372046 L412.8851754836505,234.02006370797073 C412.8851754836505,234.02006370797073 414.35213705426685,237.4758769570977 413.659685744901,240.07528669205524 C413.659685744901,240.07528669205524 414.96568552528214,244.1259670528209 419.72005495294235,244.27354423856272 C421.4963156498937,244.32482588611776 424.21688551622617,243.85360452469519 427.87103376592427,243.0068875439528 C434.2407021003005,241.53339487087078 444.2127584224168,241.96814928292085 431.86919839083146,245.0553044657354 z" fill="#ff7ff9" id="xe_7kpwqc" oldFill="#ff7ff9"></path><path d="M444.56939925176164,233.15226427212238 C435.7853040638539,232.9414397210627 424.3967839876658,237.66163048046383 424.2522339878074,241.9510554004025 C424.12220211020525,246.23421256341777 435.60603681512123,249.99942508612702 444.3825573305474,250.1891671820807 C453.1616027368007,250.39999173314038 455.93898264674607,246.98463400597348 456.0759579741226,242.69691847428663 C456.09489465532687,241.9721378555085 455.7332040443273,239.9658858439378 455.61516539815466,239.6564865703556 C454.5408243511712,236.83884493524715 451.15178963833154,233.30383003045173 444.56939925176164,233.15226427212238 z" fill="#fdbaba" id="xe_h1syel" oldFill="#fdbaba"></path><circle cx="302.71186982174146" cy="365.1421499019209" r="4.209000110626221" fill="#555C49" id="xe_z76a3i" transform="matrix(0.631223 0 0 0.569796 249.827 30.7053)" oldFill="#555C49"></circle><g id="xe_8hn8pt" transform="matrix(0.631223 0 0 0.569796 249.827 30.7053)"></g><g id="xe_fff006" transform="matrix(0.631223 0 0 0.569796 249.827 30.7053)"></g><g id="xe_xpa5u5" transform="matrix(0.631223 0 0 0.569796 249.827 30.7053)"></g><g id="xe_6tiblu" transform="matrix(0.631223 0 0 0.569796 249.827 30.7053)"></g><g id="xe_r4mhdt" transform="matrix(0.631223 0 0 0.569796 249.827 30.7053)"></g><g id="xe_8mewi2" transform="matrix(0.631223 0 0 0.569796 249.827 30.7053)"></g><g id="xe_iiirdd" transform="matrix(0.631223 0 0 0.569796 249.827 30.7053)"></g><g id="xe_hx4ick" transform="matrix(0.631223 0 0 0.569796 249.827 30.7053)"></g><g id="xe_0brs07" transform="matrix(0.631223 0 0 0.569796 249.827 30.7053)"></g><g id="xe_m8yw6d" transform="matrix(0.631223 0 0 0.569796 249.827 30.7053)"></g><g id="xe_wqivdg" transform="matrix(0.631223 0 0 0.569796 249.827 30.7053)"></g><g id="xe_777fxz" transform="matrix(0.631223 0 0 0.569796 249.827 30.7053)"></g><g id="xe_vrfd0w" transform="matrix(0.631223 0 0 0.569796 249.827 30.7053)"></g><g id="xe_k8nm64" transform="matrix(0.631223 0 0 0.569796 249.827 30.7053)"></g><g id="xe_v8hsuc" transform="matrix(0.631223 0 0 0.569796 249.827 30.7053)"></g></g></g></g><g id="borderG" clip-path="url(#bound_0)" display="none"><rect id="border" x="236.4092" y="177.340925" width="482.1816" height="271.22715" aWidth="1920" aHeight="1080" fill="none" stroke-width="1" stroke="#000" pointer-events="none"></rect></g></svg>